%TF.GenerationSoftware,KiCad,Pcbnew,5.1.6-c6e7f7d~87~ubuntu18.04.1*%
%TF.CreationDate,2022-06-06T17:05:42+02:00*%
%TF.ProjectId,esp32-shield,65737033-322d-4736-9869-656c642e6b69,rev?*%
%TF.SameCoordinates,Original*%
%TF.FileFunction,Legend,Bot*%
%TF.FilePolarity,Positive*%
%FSLAX46Y46*%
G04 Gerber Fmt 4.6, Leading zero omitted, Abs format (unit mm)*
G04 Created by KiCad (PCBNEW 5.1.6-c6e7f7d~87~ubuntu18.04.1) date 2022-06-06 17:05:42*
%MOMM*%
%LPD*%
G01*
G04 APERTURE LIST*
%ADD10C,0.120000*%
%ADD11C,0.150000*%
G04 APERTURE END LIST*
D10*
%TO.C,J3*%
X88960000Y-67370000D02*
X88960000Y-66040000D01*
X87630000Y-67370000D02*
X88960000Y-67370000D01*
X86360000Y-67370000D02*
X86360000Y-64710000D01*
X86360000Y-64710000D02*
X68520000Y-64710000D01*
X86360000Y-67370000D02*
X68520000Y-67370000D01*
X68520000Y-67370000D02*
X68520000Y-64710000D01*
%TO.C,J2*%
X83820000Y-52832000D02*
X83820000Y-51562000D01*
X82550000Y-52832000D02*
X83820000Y-52832000D01*
X74550000Y-50519071D02*
X74550000Y-50064929D01*
X75310000Y-50519071D02*
X75310000Y-50064929D01*
X74550000Y-47979071D02*
X74550000Y-47582000D01*
X75310000Y-47979071D02*
X75310000Y-47582000D01*
X74550000Y-38922000D02*
X74550000Y-44922000D01*
X75310000Y-38922000D02*
X74550000Y-38922000D01*
X75310000Y-44922000D02*
X75310000Y-38922000D01*
X76200000Y-47582000D02*
X76200000Y-44922000D01*
X77090000Y-50519071D02*
X77090000Y-50064929D01*
X77850000Y-50519071D02*
X77850000Y-50064929D01*
X77090000Y-47979071D02*
X77090000Y-47582000D01*
X77850000Y-47979071D02*
X77850000Y-47582000D01*
X77090000Y-38922000D02*
X77090000Y-44922000D01*
X77850000Y-38922000D02*
X77090000Y-38922000D01*
X77850000Y-44922000D02*
X77850000Y-38922000D01*
X78740000Y-47582000D02*
X78740000Y-44922000D01*
X79630000Y-50519071D02*
X79630000Y-50064929D01*
X80390000Y-50519071D02*
X80390000Y-50064929D01*
X79630000Y-47979071D02*
X79630000Y-47582000D01*
X80390000Y-47979071D02*
X80390000Y-47582000D01*
X79630000Y-38922000D02*
X79630000Y-44922000D01*
X80390000Y-38922000D02*
X79630000Y-38922000D01*
X80390000Y-44922000D02*
X80390000Y-38922000D01*
X81280000Y-47582000D02*
X81280000Y-44922000D01*
X82170000Y-50452000D02*
X82170000Y-50064929D01*
X82930000Y-50452000D02*
X82930000Y-50064929D01*
X82170000Y-47979071D02*
X82170000Y-47582000D01*
X82930000Y-47979071D02*
X82930000Y-47582000D01*
X82270000Y-44922000D02*
X82270000Y-38922000D01*
X82390000Y-44922000D02*
X82390000Y-38922000D01*
X82510000Y-44922000D02*
X82510000Y-38922000D01*
X82630000Y-44922000D02*
X82630000Y-38922000D01*
X82750000Y-44922000D02*
X82750000Y-38922000D01*
X82870000Y-44922000D02*
X82870000Y-38922000D01*
X82170000Y-38922000D02*
X82170000Y-44922000D01*
X82930000Y-38922000D02*
X82170000Y-38922000D01*
X82930000Y-44922000D02*
X82930000Y-38922000D01*
X83880000Y-44922000D02*
X83880000Y-47582000D01*
X73600000Y-44922000D02*
X83880000Y-44922000D01*
X73600000Y-47582000D02*
X73600000Y-44922000D01*
X83880000Y-47582000D02*
X73600000Y-47582000D01*
%TO.C,J1*%
X92770000Y-40580000D02*
X91440000Y-40580000D01*
X92770000Y-41910000D02*
X92770000Y-40580000D01*
X92770000Y-43180000D02*
X90110000Y-43180000D01*
X90110000Y-43180000D02*
X90110000Y-61020000D01*
X92770000Y-43180000D02*
X92770000Y-61020000D01*
X92770000Y-61020000D02*
X90110000Y-61020000D01*
%TO.C,J5*%
X67370000Y-61020000D02*
X64710000Y-61020000D01*
X67370000Y-43180000D02*
X67370000Y-61020000D01*
X64710000Y-43180000D02*
X64710000Y-61020000D01*
X67370000Y-43180000D02*
X64710000Y-43180000D01*
X67370000Y-41910000D02*
X67370000Y-40580000D01*
X67370000Y-40580000D02*
X66040000Y-40580000D01*
%TO.C,J3*%
D11*
X89412380Y-65706666D02*
X90126666Y-65706666D01*
X90269523Y-65659047D01*
X90364761Y-65563809D01*
X90412380Y-65420952D01*
X90412380Y-65325714D01*
X89412380Y-66087619D02*
X89412380Y-66706666D01*
X89793333Y-66373333D01*
X89793333Y-66516190D01*
X89840952Y-66611428D01*
X89888571Y-66659047D01*
X89983809Y-66706666D01*
X90221904Y-66706666D01*
X90317142Y-66659047D01*
X90364761Y-66611428D01*
X90412380Y-66516190D01*
X90412380Y-66230476D01*
X90364761Y-66135238D01*
X90317142Y-66087619D01*
%TO.C,J1*%
X91773333Y-39032380D02*
X91773333Y-39746666D01*
X91820952Y-39889523D01*
X91916190Y-39984761D01*
X92059047Y-40032380D01*
X92154285Y-40032380D01*
X90773333Y-40032380D02*
X91344761Y-40032380D01*
X91059047Y-40032380D02*
X91059047Y-39032380D01*
X91154285Y-39175238D01*
X91249523Y-39270476D01*
X91344761Y-39318095D01*
%TO.C,J5*%
X66373333Y-39032380D02*
X66373333Y-39746666D01*
X66420952Y-39889523D01*
X66516190Y-39984761D01*
X66659047Y-40032380D01*
X66754285Y-40032380D01*
X65420952Y-39032380D02*
X65897142Y-39032380D01*
X65944761Y-39508571D01*
X65897142Y-39460952D01*
X65801904Y-39413333D01*
X65563809Y-39413333D01*
X65468571Y-39460952D01*
X65420952Y-39508571D01*
X65373333Y-39603809D01*
X65373333Y-39841904D01*
X65420952Y-39937142D01*
X65468571Y-39984761D01*
X65563809Y-40032380D01*
X65801904Y-40032380D01*
X65897142Y-39984761D01*
X65944761Y-39937142D01*
%TD*%
M02*
