M48
; DRILL file {KiCad 5.1.6-c6e7f7d~87~ubuntu18.04.1} date Mon Jun  6 17:05:36 2022
; FORMAT={-:-/ absolute / metric / decimal}
; #@! TF.CreationDate,2022-06-06T17:05:36+02:00
; #@! TF.GenerationSoftware,Kicad,Pcbnew,5.1.6-c6e7f7d~87~ubuntu18.04.1
; #@! TF.FileFunction,Plated,1,2,PTH
FMAT,2
METRIC
T1C0.400
T2C0.800
T3C1.000
%
G90
G05
T1
X66.802Y-64.897
X71.12Y-45.72
X71.12Y-49.276
X71.12Y-53.34
X71.12Y-57.277
X71.12Y-60.96
X78.74Y-52.705
X78.74Y-60.198
X78.74Y-63.119
X85.217Y-46.355
X87.63Y-59.182
X87.63Y-63.373
X87.757Y-52.07
X87.757Y-48.641
X90.805Y-64.77
T2
X73.533Y-57.404
X83.693Y-57.404
X73.533Y-60.325
X83.693Y-60.325
X73.533Y-62.992
X83.693Y-62.992
X73.533Y-54.483
X83.693Y-54.483
T3
X66.04Y-41.91
X66.04Y-44.45
X66.04Y-46.99
X66.04Y-49.53
X66.04Y-52.07
X66.04Y-54.61
X66.04Y-57.15
X66.04Y-59.69
X69.85Y-66.04
X72.39Y-66.04
X74.93Y-66.04
X77.47Y-66.04
X80.01Y-66.04
X82.55Y-66.04
X85.09Y-66.04
X87.63Y-66.04
X91.44Y-41.91
X91.44Y-44.45
X91.44Y-46.99
X91.44Y-49.53
X91.44Y-52.07
X91.44Y-54.61
X91.44Y-57.15
X91.44Y-59.69
X74.93Y-49.022
X74.93Y-51.562
X77.47Y-49.022
X77.47Y-51.562
X80.01Y-49.022
X80.01Y-51.562
X82.55Y-49.022
X82.55Y-51.562
T0
M30
