%TF.GenerationSoftware,KiCad,Pcbnew,5.1.6-c6e7f7d~87~ubuntu18.04.1*%
%TF.CreationDate,2022-06-06T17:05:42+02:00*%
%TF.ProjectId,esp32-shield,65737033-322d-4736-9869-656c642e6b69,rev?*%
%TF.SameCoordinates,Original*%
%TF.FileFunction,Soldermask,Top*%
%TF.FilePolarity,Negative*%
%FSLAX46Y46*%
G04 Gerber Fmt 4.6, Leading zero omitted, Abs format (unit mm)*
G04 Created by KiCad (PCBNEW 5.1.6-c6e7f7d~87~ubuntu18.04.1) date 2022-06-06 17:05:42*
%MOMM*%
%LPD*%
G01*
G04 APERTURE LIST*
%ADD10R,1.800000X1.800000*%
%ADD11O,1.800000X1.800000*%
%ADD12C,1.700000*%
%ADD13O,1.700000X1.700000*%
G04 APERTURE END LIST*
D10*
%TO.C,J3*%
X87630000Y-66040000D03*
D11*
X85090000Y-66040000D03*
X82550000Y-66040000D03*
X80010000Y-66040000D03*
X77470000Y-66040000D03*
X74930000Y-66040000D03*
X72390000Y-66040000D03*
X69850000Y-66040000D03*
%TD*%
D10*
%TO.C,J2*%
X82550000Y-51562000D03*
D11*
X82550000Y-49022000D03*
X80010000Y-51562000D03*
X80010000Y-49022000D03*
X77470000Y-51562000D03*
X77470000Y-49022000D03*
X74930000Y-51562000D03*
X74930000Y-49022000D03*
%TD*%
D10*
%TO.C,J1*%
X91440000Y-41910000D03*
D11*
X91440000Y-44450000D03*
X91440000Y-46990000D03*
X91440000Y-49530000D03*
X91440000Y-52070000D03*
X91440000Y-54610000D03*
X91440000Y-57150000D03*
X91440000Y-59690000D03*
%TD*%
%TO.C,J5*%
X66040000Y-59690000D03*
X66040000Y-57150000D03*
X66040000Y-54610000D03*
X66040000Y-52070000D03*
X66040000Y-49530000D03*
X66040000Y-46990000D03*
X66040000Y-44450000D03*
D10*
X66040000Y-41910000D03*
%TD*%
D12*
%TO.C,R0*%
X73533000Y-54483000D03*
D13*
X83693000Y-54483000D03*
%TD*%
%TO.C,R1*%
X83693000Y-57404000D03*
D12*
X73533000Y-57404000D03*
%TD*%
%TO.C,R2*%
X73533000Y-60325000D03*
D13*
X83693000Y-60325000D03*
%TD*%
%TO.C,R3*%
X83693000Y-62992000D03*
D12*
X73533000Y-62992000D03*
%TD*%
M02*
