%TF.GenerationSoftware,KiCad,Pcbnew,5.1.6-c6e7f7d~87~ubuntu18.04.1*%
%TF.CreationDate,2022-06-06T17:05:42+02:00*%
%TF.ProjectId,esp32-shield,65737033-322d-4736-9869-656c642e6b69,rev?*%
%TF.SameCoordinates,Original*%
%TF.FileFunction,Legend,Top*%
%TF.FilePolarity,Positive*%
%FSLAX46Y46*%
G04 Gerber Fmt 4.6, Leading zero omitted, Abs format (unit mm)*
G04 Created by KiCad (PCBNEW 5.1.6-c6e7f7d~87~ubuntu18.04.1) date 2022-06-06 17:05:42*
%MOMM*%
%LPD*%
G01*
G04 APERTURE LIST*
%ADD10C,0.150000*%
%ADD11C,0.120000*%
G04 APERTURE END LIST*
D10*
X68580095Y-41410000D02*
X68484857Y-41362380D01*
X68342000Y-41362380D01*
X68199142Y-41410000D01*
X68103904Y-41505238D01*
X68056285Y-41600476D01*
X68008666Y-41790952D01*
X68008666Y-41933809D01*
X68056285Y-42124285D01*
X68103904Y-42219523D01*
X68199142Y-42314761D01*
X68342000Y-42362380D01*
X68437238Y-42362380D01*
X68580095Y-42314761D01*
X68627714Y-42267142D01*
X68627714Y-41933809D01*
X68437238Y-41933809D01*
X69056285Y-42362380D02*
X69056285Y-41362380D01*
X69627714Y-42362380D01*
X69627714Y-41362380D01*
X70103904Y-42362380D02*
X70103904Y-41362380D01*
X70342000Y-41362380D01*
X70484857Y-41410000D01*
X70580095Y-41505238D01*
X70627714Y-41600476D01*
X70675333Y-41790952D01*
X70675333Y-41933809D01*
X70627714Y-42124285D01*
X70580095Y-42219523D01*
X70484857Y-42314761D01*
X70342000Y-42362380D01*
X70103904Y-42362380D01*
X87709523Y-41489380D02*
X88328571Y-41489380D01*
X87995238Y-41870333D01*
X88138095Y-41870333D01*
X88233333Y-41917952D01*
X88280952Y-41965571D01*
X88328571Y-42060809D01*
X88328571Y-42298904D01*
X88280952Y-42394142D01*
X88233333Y-42441761D01*
X88138095Y-42489380D01*
X87852380Y-42489380D01*
X87757142Y-42441761D01*
X87709523Y-42394142D01*
X88661904Y-41822714D02*
X88900000Y-42489380D01*
X89138095Y-41822714D01*
X89423809Y-41489380D02*
X90042857Y-41489380D01*
X89709523Y-41870333D01*
X89852380Y-41870333D01*
X89947619Y-41917952D01*
X89995238Y-41965571D01*
X90042857Y-42060809D01*
X90042857Y-42298904D01*
X89995238Y-42394142D01*
X89947619Y-42441761D01*
X89852380Y-42489380D01*
X89566666Y-42489380D01*
X89471428Y-42441761D01*
X89423809Y-42394142D01*
X88312714Y-54903666D02*
X88788904Y-54903666D01*
X88217476Y-55189380D02*
X88550809Y-54189380D01*
X88884142Y-55189380D01*
X89122238Y-54189380D02*
X89741285Y-54189380D01*
X89407952Y-54570333D01*
X89550809Y-54570333D01*
X89646047Y-54617952D01*
X89693666Y-54665571D01*
X89741285Y-54760809D01*
X89741285Y-54998904D01*
X89693666Y-55094142D01*
X89646047Y-55141761D01*
X89550809Y-55189380D01*
X89265095Y-55189380D01*
X89169857Y-55141761D01*
X89122238Y-55094142D01*
X88439714Y-52236666D02*
X88915904Y-52236666D01*
X88344476Y-52522380D02*
X88677809Y-51522380D01*
X89011142Y-52522380D01*
X89296857Y-51617619D02*
X89344476Y-51570000D01*
X89439714Y-51522380D01*
X89677809Y-51522380D01*
X89773047Y-51570000D01*
X89820666Y-51617619D01*
X89868285Y-51712857D01*
X89868285Y-51808095D01*
X89820666Y-51950952D01*
X89249238Y-52522380D01*
X89868285Y-52522380D01*
X88566714Y-49696666D02*
X89042904Y-49696666D01*
X88471476Y-49982380D02*
X88804809Y-48982380D01*
X89138142Y-49982380D01*
X89995285Y-49982380D02*
X89423857Y-49982380D01*
X89709571Y-49982380D02*
X89709571Y-48982380D01*
X89614333Y-49125238D01*
X89519095Y-49220476D01*
X89423857Y-49268095D01*
X88439714Y-47283666D02*
X88915904Y-47283666D01*
X88344476Y-47569380D02*
X88677809Y-46569380D01*
X89011142Y-47569380D01*
X89534952Y-46569380D02*
X89630190Y-46569380D01*
X89725428Y-46617000D01*
X89773047Y-46664619D01*
X89820666Y-46759857D01*
X89868285Y-46950333D01*
X89868285Y-47188428D01*
X89820666Y-47378904D01*
X89773047Y-47474142D01*
X89725428Y-47521761D01*
X89630190Y-47569380D01*
X89534952Y-47569380D01*
X89439714Y-47521761D01*
X89392095Y-47474142D01*
X89344476Y-47378904D01*
X89296857Y-47188428D01*
X89296857Y-46950333D01*
X89344476Y-46759857D01*
X89392095Y-46664619D01*
X89439714Y-46617000D01*
X89534952Y-46569380D01*
X87709523Y-60221761D02*
X87852380Y-60269380D01*
X88090476Y-60269380D01*
X88185714Y-60221761D01*
X88233333Y-60174142D01*
X88280952Y-60078904D01*
X88280952Y-59983666D01*
X88233333Y-59888428D01*
X88185714Y-59840809D01*
X88090476Y-59793190D01*
X87900000Y-59745571D01*
X87804761Y-59697952D01*
X87757142Y-59650333D01*
X87709523Y-59555095D01*
X87709523Y-59459857D01*
X87757142Y-59364619D01*
X87804761Y-59317000D01*
X87900000Y-59269380D01*
X88138095Y-59269380D01*
X88280952Y-59317000D01*
X89280952Y-60174142D02*
X89233333Y-60221761D01*
X89090476Y-60269380D01*
X88995238Y-60269380D01*
X88852380Y-60221761D01*
X88757142Y-60126523D01*
X88709523Y-60031285D01*
X88661904Y-59840809D01*
X88661904Y-59697952D01*
X88709523Y-59507476D01*
X88757142Y-59412238D01*
X88852380Y-59317000D01*
X88995238Y-59269380D01*
X89090476Y-59269380D01*
X89233333Y-59317000D01*
X89280952Y-59364619D01*
X90185714Y-60269380D02*
X89709523Y-60269380D01*
X89709523Y-59269380D01*
X87431714Y-57681761D02*
X87574571Y-57729380D01*
X87812666Y-57729380D01*
X87907904Y-57681761D01*
X87955523Y-57634142D01*
X88003142Y-57538904D01*
X88003142Y-57443666D01*
X87955523Y-57348428D01*
X87907904Y-57300809D01*
X87812666Y-57253190D01*
X87622190Y-57205571D01*
X87526952Y-57157952D01*
X87479333Y-57110333D01*
X87431714Y-57015095D01*
X87431714Y-56919857D01*
X87479333Y-56824619D01*
X87526952Y-56777000D01*
X87622190Y-56729380D01*
X87860285Y-56729380D01*
X88003142Y-56777000D01*
X88431714Y-57729380D02*
X88431714Y-56729380D01*
X88669809Y-56729380D01*
X88812666Y-56777000D01*
X88907904Y-56872238D01*
X88955523Y-56967476D01*
X89003142Y-57157952D01*
X89003142Y-57300809D01*
X88955523Y-57491285D01*
X88907904Y-57586523D01*
X88812666Y-57681761D01*
X88669809Y-57729380D01*
X88431714Y-57729380D01*
X89384095Y-57443666D02*
X89860285Y-57443666D01*
X89288857Y-57729380D02*
X89622190Y-56729380D01*
X89955523Y-57729380D01*
X72986047Y-40553714D02*
X73176523Y-41220380D01*
X73367000Y-40744190D01*
X73557476Y-41220380D01*
X73747952Y-40553714D01*
X74128904Y-41220380D02*
X74128904Y-40553714D01*
X74128904Y-40220380D02*
X74081285Y-40268000D01*
X74128904Y-40315619D01*
X74176523Y-40268000D01*
X74128904Y-40220380D01*
X74128904Y-40315619D01*
X74605095Y-40553714D02*
X74605095Y-41220380D01*
X74605095Y-40648952D02*
X74652714Y-40601333D01*
X74747952Y-40553714D01*
X74890809Y-40553714D01*
X74986047Y-40601333D01*
X75033666Y-40696571D01*
X75033666Y-41220380D01*
X75938428Y-41220380D02*
X75938428Y-40220380D01*
X75938428Y-41172761D02*
X75843190Y-41220380D01*
X75652714Y-41220380D01*
X75557476Y-41172761D01*
X75509857Y-41125142D01*
X75462238Y-41029904D01*
X75462238Y-40744190D01*
X75509857Y-40648952D01*
X75557476Y-40601333D01*
X75652714Y-40553714D01*
X75843190Y-40553714D01*
X75938428Y-40601333D01*
X77176523Y-41220380D02*
X77176523Y-40553714D01*
X77176523Y-40220380D02*
X77128904Y-40268000D01*
X77176523Y-40315619D01*
X77224142Y-40268000D01*
X77176523Y-40220380D01*
X77176523Y-40315619D01*
X77652714Y-40553714D02*
X77652714Y-41220380D01*
X77652714Y-40648952D02*
X77700333Y-40601333D01*
X77795571Y-40553714D01*
X77938428Y-40553714D01*
X78033666Y-40601333D01*
X78081285Y-40696571D01*
X78081285Y-41220380D01*
X78509857Y-41172761D02*
X78605095Y-41220380D01*
X78795571Y-41220380D01*
X78890809Y-41172761D01*
X78938428Y-41077523D01*
X78938428Y-41029904D01*
X78890809Y-40934666D01*
X78795571Y-40887047D01*
X78652714Y-40887047D01*
X78557476Y-40839428D01*
X78509857Y-40744190D01*
X78509857Y-40696571D01*
X78557476Y-40601333D01*
X78652714Y-40553714D01*
X78795571Y-40553714D01*
X78890809Y-40601333D01*
X79224142Y-40553714D02*
X79605095Y-40553714D01*
X79367000Y-40220380D02*
X79367000Y-41077523D01*
X79414619Y-41172761D01*
X79509857Y-41220380D01*
X79605095Y-41220380D01*
X79938428Y-41220380D02*
X79938428Y-40553714D01*
X79938428Y-40744190D02*
X79986047Y-40648952D01*
X80033666Y-40601333D01*
X80128904Y-40553714D01*
X80224142Y-40553714D01*
X80986047Y-40553714D02*
X80986047Y-41220380D01*
X80557476Y-40553714D02*
X80557476Y-41077523D01*
X80605095Y-41172761D01*
X80700333Y-41220380D01*
X80843190Y-41220380D01*
X80938428Y-41172761D01*
X80986047Y-41125142D01*
X81462238Y-41220380D02*
X81462238Y-40553714D01*
X81462238Y-40648952D02*
X81509857Y-40601333D01*
X81605095Y-40553714D01*
X81747952Y-40553714D01*
X81843190Y-40601333D01*
X81890809Y-40696571D01*
X81890809Y-41220380D01*
X81890809Y-40696571D02*
X81938428Y-40601333D01*
X82033666Y-40553714D01*
X82176523Y-40553714D01*
X82271761Y-40601333D01*
X82319380Y-40696571D01*
X82319380Y-41220380D01*
X83176523Y-41172761D02*
X83081285Y-41220380D01*
X82890809Y-41220380D01*
X82795571Y-41172761D01*
X82747952Y-41077523D01*
X82747952Y-40696571D01*
X82795571Y-40601333D01*
X82890809Y-40553714D01*
X83081285Y-40553714D01*
X83176523Y-40601333D01*
X83224142Y-40696571D01*
X83224142Y-40791809D01*
X82747952Y-40887047D01*
X83652714Y-40553714D02*
X83652714Y-41220380D01*
X83652714Y-40648952D02*
X83700333Y-40601333D01*
X83795571Y-40553714D01*
X83938428Y-40553714D01*
X84033666Y-40601333D01*
X84081285Y-40696571D01*
X84081285Y-41220380D01*
X84414619Y-40553714D02*
X84795571Y-40553714D01*
X84557476Y-40220380D02*
X84557476Y-41077523D01*
X84605095Y-41172761D01*
X84700333Y-41220380D01*
X84795571Y-41220380D01*
X75747952Y-42822761D02*
X75652714Y-42870380D01*
X75462238Y-42870380D01*
X75367000Y-42822761D01*
X75319380Y-42727523D01*
X75319380Y-42346571D01*
X75367000Y-42251333D01*
X75462238Y-42203714D01*
X75652714Y-42203714D01*
X75747952Y-42251333D01*
X75795571Y-42346571D01*
X75795571Y-42441809D01*
X75319380Y-42537047D01*
X76176523Y-42822761D02*
X76271761Y-42870380D01*
X76462238Y-42870380D01*
X76557476Y-42822761D01*
X76605095Y-42727523D01*
X76605095Y-42679904D01*
X76557476Y-42584666D01*
X76462238Y-42537047D01*
X76319380Y-42537047D01*
X76224142Y-42489428D01*
X76176523Y-42394190D01*
X76176523Y-42346571D01*
X76224142Y-42251333D01*
X76319380Y-42203714D01*
X76462238Y-42203714D01*
X76557476Y-42251333D01*
X77033666Y-42203714D02*
X77033666Y-43203714D01*
X77033666Y-42251333D02*
X77128904Y-42203714D01*
X77319380Y-42203714D01*
X77414619Y-42251333D01*
X77462238Y-42298952D01*
X77509857Y-42394190D01*
X77509857Y-42679904D01*
X77462238Y-42775142D01*
X77414619Y-42822761D01*
X77319380Y-42870380D01*
X77128904Y-42870380D01*
X77033666Y-42822761D01*
X77843190Y-41870380D02*
X78462238Y-41870380D01*
X78128904Y-42251333D01*
X78271761Y-42251333D01*
X78367000Y-42298952D01*
X78414619Y-42346571D01*
X78462238Y-42441809D01*
X78462238Y-42679904D01*
X78414619Y-42775142D01*
X78367000Y-42822761D01*
X78271761Y-42870380D01*
X77986047Y-42870380D01*
X77890809Y-42822761D01*
X77843190Y-42775142D01*
X78843190Y-41965619D02*
X78890809Y-41918000D01*
X78986047Y-41870380D01*
X79224142Y-41870380D01*
X79319380Y-41918000D01*
X79367000Y-41965619D01*
X79414619Y-42060857D01*
X79414619Y-42156095D01*
X79367000Y-42298952D01*
X78795571Y-42870380D01*
X79414619Y-42870380D01*
X79843190Y-42489428D02*
X80605095Y-42489428D01*
X81033666Y-42822761D02*
X81128904Y-42870380D01*
X81319380Y-42870380D01*
X81414619Y-42822761D01*
X81462238Y-42727523D01*
X81462238Y-42679904D01*
X81414619Y-42584666D01*
X81319380Y-42537047D01*
X81176523Y-42537047D01*
X81081285Y-42489428D01*
X81033666Y-42394190D01*
X81033666Y-42346571D01*
X81081285Y-42251333D01*
X81176523Y-42203714D01*
X81319380Y-42203714D01*
X81414619Y-42251333D01*
X81843190Y-41965619D02*
X81890809Y-41918000D01*
X81986047Y-41870380D01*
X82224142Y-41870380D01*
X82319380Y-41918000D01*
X82367000Y-41965619D01*
X82414619Y-42060857D01*
X82414619Y-42156095D01*
X82367000Y-42298952D01*
X81795571Y-42870380D01*
X82414619Y-42870380D01*
X73057476Y-44901333D02*
X73009857Y-44853714D01*
X72914619Y-44710857D01*
X72867000Y-44615619D01*
X72819380Y-44472761D01*
X72771761Y-44234666D01*
X72771761Y-44044190D01*
X72819380Y-43806095D01*
X72867000Y-43663238D01*
X72914619Y-43568000D01*
X73009857Y-43425142D01*
X73057476Y-43377523D01*
X73867000Y-44472761D02*
X73771761Y-44520380D01*
X73581285Y-44520380D01*
X73486047Y-44472761D01*
X73438428Y-44425142D01*
X73390809Y-44329904D01*
X73390809Y-44044190D01*
X73438428Y-43948952D01*
X73486047Y-43901333D01*
X73581285Y-43853714D01*
X73771761Y-43853714D01*
X73867000Y-43901333D01*
X74200333Y-44901333D02*
X74247952Y-44853714D01*
X74343190Y-44710857D01*
X74390809Y-44615619D01*
X74438428Y-44472761D01*
X74486047Y-44234666D01*
X74486047Y-44044190D01*
X74438428Y-43806095D01*
X74390809Y-43663238D01*
X74343190Y-43568000D01*
X74247952Y-43425142D01*
X74200333Y-43377523D01*
X75676523Y-43615619D02*
X75724142Y-43568000D01*
X75819380Y-43520380D01*
X76057476Y-43520380D01*
X76152714Y-43568000D01*
X76200333Y-43615619D01*
X76247952Y-43710857D01*
X76247952Y-43806095D01*
X76200333Y-43948952D01*
X75628904Y-44520380D01*
X76247952Y-44520380D01*
X76867000Y-43520380D02*
X76962238Y-43520380D01*
X77057476Y-43568000D01*
X77105095Y-43615619D01*
X77152714Y-43710857D01*
X77200333Y-43901333D01*
X77200333Y-44139428D01*
X77152714Y-44329904D01*
X77105095Y-44425142D01*
X77057476Y-44472761D01*
X76962238Y-44520380D01*
X76867000Y-44520380D01*
X76771761Y-44472761D01*
X76724142Y-44425142D01*
X76676523Y-44329904D01*
X76628904Y-44139428D01*
X76628904Y-43901333D01*
X76676523Y-43710857D01*
X76724142Y-43615619D01*
X76771761Y-43568000D01*
X76867000Y-43520380D01*
X77581285Y-43615619D02*
X77628904Y-43568000D01*
X77724142Y-43520380D01*
X77962238Y-43520380D01*
X78057476Y-43568000D01*
X78105095Y-43615619D01*
X78152714Y-43710857D01*
X78152714Y-43806095D01*
X78105095Y-43948952D01*
X77533666Y-44520380D01*
X78152714Y-44520380D01*
X78533666Y-43615619D02*
X78581285Y-43568000D01*
X78676523Y-43520380D01*
X78914619Y-43520380D01*
X79009857Y-43568000D01*
X79057476Y-43615619D01*
X79105095Y-43710857D01*
X79105095Y-43806095D01*
X79057476Y-43948952D01*
X78486047Y-44520380D01*
X79105095Y-44520380D01*
X80295571Y-43853714D02*
X80295571Y-44520380D01*
X80295571Y-43948952D02*
X80343190Y-43901333D01*
X80438428Y-43853714D01*
X80581285Y-43853714D01*
X80676523Y-43901333D01*
X80724142Y-43996571D01*
X80724142Y-44520380D01*
X81581285Y-44472761D02*
X81486047Y-44520380D01*
X81295571Y-44520380D01*
X81200333Y-44472761D01*
X81152714Y-44377523D01*
X81152714Y-43996571D01*
X81200333Y-43901333D01*
X81295571Y-43853714D01*
X81486047Y-43853714D01*
X81581285Y-43901333D01*
X81628904Y-43996571D01*
X81628904Y-44091809D01*
X81152714Y-44187047D01*
X82009857Y-44472761D02*
X82105095Y-44520380D01*
X82295571Y-44520380D01*
X82390809Y-44472761D01*
X82438428Y-44377523D01*
X82438428Y-44329904D01*
X82390809Y-44234666D01*
X82295571Y-44187047D01*
X82152714Y-44187047D01*
X82057476Y-44139428D01*
X82009857Y-44044190D01*
X82009857Y-43996571D01*
X82057476Y-43901333D01*
X82152714Y-43853714D01*
X82295571Y-43853714D01*
X82390809Y-43901333D01*
X83295571Y-44472761D02*
X83200333Y-44520380D01*
X83009857Y-44520380D01*
X82914619Y-44472761D01*
X82867000Y-44425142D01*
X82819380Y-44329904D01*
X82819380Y-44044190D01*
X82867000Y-43948952D01*
X82914619Y-43901333D01*
X83009857Y-43853714D01*
X83200333Y-43853714D01*
X83295571Y-43901333D01*
X83724142Y-44520380D02*
X83724142Y-43853714D01*
X83724142Y-43520380D02*
X83676523Y-43568000D01*
X83724142Y-43615619D01*
X83771761Y-43568000D01*
X83724142Y-43520380D01*
X83724142Y-43615619D01*
X84105095Y-43853714D02*
X84343190Y-44520380D01*
X84581285Y-43853714D01*
X84962238Y-44520380D02*
X84962238Y-43853714D01*
X84962238Y-43520380D02*
X84914619Y-43568000D01*
X84962238Y-43615619D01*
X85009857Y-43568000D01*
X84962238Y-43520380D01*
X84962238Y-43615619D01*
D11*
%TO.C,R0*%
X82653000Y-54483000D02*
X81883000Y-54483000D01*
X74573000Y-54483000D02*
X75343000Y-54483000D01*
X81883000Y-53113000D02*
X75343000Y-53113000D01*
X81883000Y-55853000D02*
X81883000Y-53113000D01*
X75343000Y-55853000D02*
X81883000Y-55853000D01*
X75343000Y-53113000D02*
X75343000Y-55853000D01*
%TO.C,R1*%
X75343000Y-56034000D02*
X75343000Y-58774000D01*
X75343000Y-58774000D02*
X81883000Y-58774000D01*
X81883000Y-58774000D02*
X81883000Y-56034000D01*
X81883000Y-56034000D02*
X75343000Y-56034000D01*
X74573000Y-57404000D02*
X75343000Y-57404000D01*
X82653000Y-57404000D02*
X81883000Y-57404000D01*
%TO.C,R2*%
X82653000Y-60325000D02*
X81883000Y-60325000D01*
X74573000Y-60325000D02*
X75343000Y-60325000D01*
X81883000Y-58955000D02*
X75343000Y-58955000D01*
X81883000Y-61695000D02*
X81883000Y-58955000D01*
X75343000Y-61695000D02*
X81883000Y-61695000D01*
X75343000Y-58955000D02*
X75343000Y-61695000D01*
%TO.C,R3*%
X75343000Y-61622000D02*
X75343000Y-64362000D01*
X75343000Y-64362000D02*
X81883000Y-64362000D01*
X81883000Y-64362000D02*
X81883000Y-61622000D01*
X81883000Y-61622000D02*
X75343000Y-61622000D01*
X74573000Y-62992000D02*
X75343000Y-62992000D01*
X82653000Y-62992000D02*
X81883000Y-62992000D01*
%TO.C,J3*%
D10*
X85003095Y-64206380D02*
X85003095Y-63206380D01*
X85336428Y-63920666D01*
X85669761Y-63206380D01*
X85669761Y-64206380D01*
X86145952Y-64206380D02*
X86145952Y-63206380D01*
X86526904Y-63206380D01*
X86622142Y-63254000D01*
X86669761Y-63301619D01*
X86717380Y-63396857D01*
X86717380Y-63539714D01*
X86669761Y-63634952D01*
X86622142Y-63682571D01*
X86526904Y-63730190D01*
X86145952Y-63730190D01*
X87145952Y-63206380D02*
X87145952Y-64015904D01*
X87193571Y-64111142D01*
X87241190Y-64158761D01*
X87336428Y-64206380D01*
X87526904Y-64206380D01*
X87622142Y-64158761D01*
X87669761Y-64111142D01*
X87717380Y-64015904D01*
X87717380Y-63206380D01*
X88622142Y-63206380D02*
X88431666Y-63206380D01*
X88336428Y-63254000D01*
X88288809Y-63301619D01*
X88193571Y-63444476D01*
X88145952Y-63634952D01*
X88145952Y-64015904D01*
X88193571Y-64111142D01*
X88241190Y-64158761D01*
X88336428Y-64206380D01*
X88526904Y-64206380D01*
X88622142Y-64158761D01*
X88669761Y-64111142D01*
X88717380Y-64015904D01*
X88717380Y-63777809D01*
X88669761Y-63682571D01*
X88622142Y-63634952D01*
X88526904Y-63587333D01*
X88336428Y-63587333D01*
X88241190Y-63634952D01*
X88193571Y-63682571D01*
X88145952Y-63777809D01*
X89336428Y-63206380D02*
X89431666Y-63206380D01*
X89526904Y-63254000D01*
X89574523Y-63301619D01*
X89622142Y-63396857D01*
X89669761Y-63587333D01*
X89669761Y-63825428D01*
X89622142Y-64015904D01*
X89574523Y-64111142D01*
X89526904Y-64158761D01*
X89431666Y-64206380D01*
X89336428Y-64206380D01*
X89241190Y-64158761D01*
X89193571Y-64111142D01*
X89145952Y-64015904D01*
X89098333Y-63825428D01*
X89098333Y-63587333D01*
X89145952Y-63396857D01*
X89193571Y-63301619D01*
X89241190Y-63254000D01*
X89336428Y-63206380D01*
X90574523Y-63206380D02*
X90098333Y-63206380D01*
X90050714Y-63682571D01*
X90098333Y-63634952D01*
X90193571Y-63587333D01*
X90431666Y-63587333D01*
X90526904Y-63634952D01*
X90574523Y-63682571D01*
X90622142Y-63777809D01*
X90622142Y-64015904D01*
X90574523Y-64111142D01*
X90526904Y-64158761D01*
X90431666Y-64206380D01*
X90193571Y-64206380D01*
X90098333Y-64158761D01*
X90050714Y-64111142D01*
X91241190Y-63206380D02*
X91336428Y-63206380D01*
X91431666Y-63254000D01*
X91479285Y-63301619D01*
X91526904Y-63396857D01*
X91574523Y-63587333D01*
X91574523Y-63825428D01*
X91526904Y-64015904D01*
X91479285Y-64111142D01*
X91431666Y-64158761D01*
X91336428Y-64206380D01*
X91241190Y-64206380D01*
X91145952Y-64158761D01*
X91098333Y-64111142D01*
X91050714Y-64015904D01*
X91003095Y-63825428D01*
X91003095Y-63587333D01*
X91050714Y-63396857D01*
X91098333Y-63301619D01*
X91145952Y-63254000D01*
X91241190Y-63206380D01*
%TO.C,J2*%
X71969380Y-50625333D02*
X72683666Y-50625333D01*
X72826523Y-50672952D01*
X72921761Y-50768190D01*
X72969380Y-50911047D01*
X72969380Y-51006285D01*
X72064619Y-50196761D02*
X72017000Y-50149142D01*
X71969380Y-50053904D01*
X71969380Y-49815809D01*
X72017000Y-49720571D01*
X72064619Y-49672952D01*
X72159857Y-49625333D01*
X72255095Y-49625333D01*
X72397952Y-49672952D01*
X72969380Y-50244380D01*
X72969380Y-49625333D01*
X76047933Y-47521761D02*
X76143171Y-47569380D01*
X76333647Y-47569380D01*
X76428885Y-47521761D01*
X76476504Y-47426523D01*
X76476504Y-47378904D01*
X76428885Y-47283666D01*
X76333647Y-47236047D01*
X76190790Y-47236047D01*
X76095552Y-47188428D01*
X76047933Y-47093190D01*
X76047933Y-47045571D01*
X76095552Y-46950333D01*
X76190790Y-46902714D01*
X76333647Y-46902714D01*
X76428885Y-46950333D01*
X77286028Y-47521761D02*
X77190790Y-47569380D01*
X77000314Y-47569380D01*
X76905076Y-47521761D01*
X76857457Y-47426523D01*
X76857457Y-47045571D01*
X76905076Y-46950333D01*
X77000314Y-46902714D01*
X77190790Y-46902714D01*
X77286028Y-46950333D01*
X77333647Y-47045571D01*
X77333647Y-47140809D01*
X76857457Y-47236047D01*
X77762219Y-46902714D02*
X77762219Y-47569380D01*
X77762219Y-46997952D02*
X77809838Y-46950333D01*
X77905076Y-46902714D01*
X78047933Y-46902714D01*
X78143171Y-46950333D01*
X78190790Y-47045571D01*
X78190790Y-47569380D01*
X78619361Y-47521761D02*
X78714600Y-47569380D01*
X78905076Y-47569380D01*
X79000314Y-47521761D01*
X79047933Y-47426523D01*
X79047933Y-47378904D01*
X79000314Y-47283666D01*
X78905076Y-47236047D01*
X78762219Y-47236047D01*
X78666980Y-47188428D01*
X78619361Y-47093190D01*
X78619361Y-47045571D01*
X78666980Y-46950333D01*
X78762219Y-46902714D01*
X78905076Y-46902714D01*
X79000314Y-46950333D01*
X79619361Y-47569380D02*
X79524123Y-47521761D01*
X79476504Y-47474142D01*
X79428885Y-47378904D01*
X79428885Y-47093190D01*
X79476504Y-46997952D01*
X79524123Y-46950333D01*
X79619361Y-46902714D01*
X79762219Y-46902714D01*
X79857457Y-46950333D01*
X79905076Y-46997952D01*
X79952695Y-47093190D01*
X79952695Y-47378904D01*
X79905076Y-47474142D01*
X79857457Y-47521761D01*
X79762219Y-47569380D01*
X79619361Y-47569380D01*
X80381266Y-47569380D02*
X80381266Y-46902714D01*
X80381266Y-47093190D02*
X80428885Y-46997952D01*
X80476504Y-46950333D01*
X80571742Y-46902714D01*
X80666980Y-46902714D01*
X80952695Y-47521761D02*
X81047933Y-47569380D01*
X81238409Y-47569380D01*
X81333647Y-47521761D01*
X81381266Y-47426523D01*
X81381266Y-47378904D01*
X81333647Y-47283666D01*
X81238409Y-47236047D01*
X81095552Y-47236047D01*
X81000314Y-47188428D01*
X80952695Y-47093190D01*
X80952695Y-47045571D01*
X81000314Y-46950333D01*
X81095552Y-46902714D01*
X81238409Y-46902714D01*
X81333647Y-46950333D01*
%TO.C,J5*%
X68635571Y-61372285D02*
X68635571Y-61038952D01*
X69159380Y-60896095D02*
X69159380Y-61372285D01*
X68159380Y-61372285D01*
X68159380Y-60896095D01*
X69111761Y-60515142D02*
X69159380Y-60372285D01*
X69159380Y-60134190D01*
X69111761Y-60038952D01*
X69064142Y-59991333D01*
X68968904Y-59943714D01*
X68873666Y-59943714D01*
X68778428Y-59991333D01*
X68730809Y-60038952D01*
X68683190Y-60134190D01*
X68635571Y-60324666D01*
X68587952Y-60419904D01*
X68540333Y-60467523D01*
X68445095Y-60515142D01*
X68349857Y-60515142D01*
X68254619Y-60467523D01*
X68207000Y-60419904D01*
X68159380Y-60324666D01*
X68159380Y-60086571D01*
X68207000Y-59943714D01*
X69159380Y-59515142D02*
X68159380Y-59515142D01*
X68159380Y-59134190D01*
X68207000Y-59038952D01*
X68254619Y-58991333D01*
X68349857Y-58943714D01*
X68492714Y-58943714D01*
X68587952Y-58991333D01*
X68635571Y-59038952D01*
X68683190Y-59134190D01*
X68683190Y-59515142D01*
X68159380Y-58610380D02*
X68159380Y-57991333D01*
X68540333Y-58324666D01*
X68540333Y-58181809D01*
X68587952Y-58086571D01*
X68635571Y-58038952D01*
X68730809Y-57991333D01*
X68968904Y-57991333D01*
X69064142Y-58038952D01*
X69111761Y-58086571D01*
X69159380Y-58181809D01*
X69159380Y-58467523D01*
X69111761Y-58562761D01*
X69064142Y-58610380D01*
X68254619Y-57610380D02*
X68207000Y-57562761D01*
X68159380Y-57467523D01*
X68159380Y-57229428D01*
X68207000Y-57134190D01*
X68254619Y-57086571D01*
X68349857Y-57038952D01*
X68445095Y-57038952D01*
X68587952Y-57086571D01*
X69159380Y-57658000D01*
X69159380Y-57038952D01*
X68778428Y-56610380D02*
X68778428Y-55848476D01*
X69111761Y-55419904D02*
X69159380Y-55277047D01*
X69159380Y-55038952D01*
X69111761Y-54943714D01*
X69064142Y-54896095D01*
X68968904Y-54848476D01*
X68873666Y-54848476D01*
X68778428Y-54896095D01*
X68730809Y-54943714D01*
X68683190Y-55038952D01*
X68635571Y-55229428D01*
X68587952Y-55324666D01*
X68540333Y-55372285D01*
X68445095Y-55419904D01*
X68349857Y-55419904D01*
X68254619Y-55372285D01*
X68207000Y-55324666D01*
X68159380Y-55229428D01*
X68159380Y-54991333D01*
X68207000Y-54848476D01*
X68254619Y-54467523D02*
X68207000Y-54419904D01*
X68159380Y-54324666D01*
X68159380Y-54086571D01*
X68207000Y-53991333D01*
X68254619Y-53943714D01*
X68349857Y-53896095D01*
X68445095Y-53896095D01*
X68587952Y-53943714D01*
X69159380Y-54515142D01*
X69159380Y-53896095D01*
%TO.C,R0*%
X78446333Y-54935380D02*
X78113000Y-54459190D01*
X77874904Y-54935380D02*
X77874904Y-53935380D01*
X78255857Y-53935380D01*
X78351095Y-53983000D01*
X78398714Y-54030619D01*
X78446333Y-54125857D01*
X78446333Y-54268714D01*
X78398714Y-54363952D01*
X78351095Y-54411571D01*
X78255857Y-54459190D01*
X77874904Y-54459190D01*
X79065380Y-53935380D02*
X79160619Y-53935380D01*
X79255857Y-53983000D01*
X79303476Y-54030619D01*
X79351095Y-54125857D01*
X79398714Y-54316333D01*
X79398714Y-54554428D01*
X79351095Y-54744904D01*
X79303476Y-54840142D01*
X79255857Y-54887761D01*
X79160619Y-54935380D01*
X79065380Y-54935380D01*
X78970142Y-54887761D01*
X78922523Y-54840142D01*
X78874904Y-54744904D01*
X78827285Y-54554428D01*
X78827285Y-54316333D01*
X78874904Y-54125857D01*
X78922523Y-54030619D01*
X78970142Y-53983000D01*
X79065380Y-53935380D01*
%TO.C,R1*%
X78446333Y-57856380D02*
X78113000Y-57380190D01*
X77874904Y-57856380D02*
X77874904Y-56856380D01*
X78255857Y-56856380D01*
X78351095Y-56904000D01*
X78398714Y-56951619D01*
X78446333Y-57046857D01*
X78446333Y-57189714D01*
X78398714Y-57284952D01*
X78351095Y-57332571D01*
X78255857Y-57380190D01*
X77874904Y-57380190D01*
X79398714Y-57856380D02*
X78827285Y-57856380D01*
X79113000Y-57856380D02*
X79113000Y-56856380D01*
X79017761Y-56999238D01*
X78922523Y-57094476D01*
X78827285Y-57142095D01*
%TO.C,R2*%
X78446333Y-60777380D02*
X78113000Y-60301190D01*
X77874904Y-60777380D02*
X77874904Y-59777380D01*
X78255857Y-59777380D01*
X78351095Y-59825000D01*
X78398714Y-59872619D01*
X78446333Y-59967857D01*
X78446333Y-60110714D01*
X78398714Y-60205952D01*
X78351095Y-60253571D01*
X78255857Y-60301190D01*
X77874904Y-60301190D01*
X78827285Y-59872619D02*
X78874904Y-59825000D01*
X78970142Y-59777380D01*
X79208238Y-59777380D01*
X79303476Y-59825000D01*
X79351095Y-59872619D01*
X79398714Y-59967857D01*
X79398714Y-60063095D01*
X79351095Y-60205952D01*
X78779666Y-60777380D01*
X79398714Y-60777380D01*
%TO.C,R3*%
X78446333Y-63444380D02*
X78113000Y-62968190D01*
X77874904Y-63444380D02*
X77874904Y-62444380D01*
X78255857Y-62444380D01*
X78351095Y-62492000D01*
X78398714Y-62539619D01*
X78446333Y-62634857D01*
X78446333Y-62777714D01*
X78398714Y-62872952D01*
X78351095Y-62920571D01*
X78255857Y-62968190D01*
X77874904Y-62968190D01*
X78779666Y-62444380D02*
X79398714Y-62444380D01*
X79065380Y-62825333D01*
X79208238Y-62825333D01*
X79303476Y-62872952D01*
X79351095Y-62920571D01*
X79398714Y-63015809D01*
X79398714Y-63253904D01*
X79351095Y-63349142D01*
X79303476Y-63396761D01*
X79208238Y-63444380D01*
X78922523Y-63444380D01*
X78827285Y-63396761D01*
X78779666Y-63349142D01*
%TD*%
M02*
